<svg xmlns="http://www.w3.org/2000/svg" version="1.1" width="1200" height="200" style="" xmlns:xlink="http://www.w3.org/1999/xlink"><defs>
<radialGradient id="green_white_radial" cx="50%" cy="50%" r="50%" fx="50%" fy="50%">
<stop offset="0%" style="stop-color:white;stop-opacity:0" />
<stop offset="100%" style="stop-color:green;stop-opacity:1" /></radialGradient>
 </defs>
<line x1="1" y1="20" x2="1100.0" y2="20" stroke="black" stroke-width="1" style=""/>
<rect x="0.0" y="20" width="1" height="5" fill="" rx="" ry="" stroke="black" stroke-width="1" style=""/>
<text x="0.0" y="40" fill="black" transform="" style="font-family:Arial;font-style:italic">3000</text>
<rect x="100.0" y="20" width="1" height="5" fill="" rx="" ry="" stroke="black" stroke-width="1" style=""/>
<text x="100.0" y="40" fill="black" transform="" style="font-family:Arial;font-style:italic">3300</text>
<rect x="200.0" y="20" width="1" height="5" fill="" rx="" ry="" stroke="black" stroke-width="1" style=""/>
<text x="200.0" y="40" fill="black" transform="" style="font-family:Arial;font-style:italic">3600</text>
<rect x="300.0" y="20" width="1" height="5" fill="" rx="" ry="" stroke="black" stroke-width="1" style=""/>
<text x="300.0" y="40" fill="black" transform="" style="font-family:Arial;font-style:italic">3900</text>
<rect x="400.0" y="20" width="1" height="5" fill="" rx="" ry="" stroke="black" stroke-width="1" style=""/>
<text x="400.0" y="40" fill="black" transform="" style="font-family:Arial;font-style:italic">4200</text>
<rect x="500.0" y="20" width="1" height="5" fill="" rx="" ry="" stroke="black" stroke-width="1" style=""/>
<text x="500.0" y="40" fill="black" transform="" style="font-family:Arial;font-style:italic">4500</text>
<rect x="600.0" y="20" width="1" height="5" fill="" rx="" ry="" stroke="black" stroke-width="1" style=""/>
<text x="600.0" y="40" fill="black" transform="" style="font-family:Arial;font-style:italic">4800</text>
<rect x="700.0" y="20" width="1" height="5" fill="" rx="" ry="" stroke="black" stroke-width="1" style=""/>
<text x="700.0" y="40" fill="black" transform="" style="font-family:Arial;font-style:italic">5100</text>
<rect x="800.0" y="20" width="1" height="5" fill="" rx="" ry="" stroke="black" stroke-width="1" style=""/>
<text x="800.0" y="40" fill="black" transform="" style="font-family:Arial;font-style:italic">5400</text>
<rect x="900.0" y="20" width="1" height="5" fill="" rx="" ry="" stroke="black" stroke-width="1" style=""/>
<text x="900.0" y="40" fill="black" transform="" style="font-family:Arial;font-style:italic">5700</text>
<rect x="1000.0" y="20" width="1" height="5" fill="" rx="" ry="" stroke="black" stroke-width="1" style=""/>
<text x="1000.0" y="40" fill="black" transform="" style="font-family:Arial;font-style:italic">6000</text>
<text x="3" y="60" fill="black" transform="" style="font-family:monospace;">feature_track</text>
<polygon points="0.0,80 998.0,80 1000.0,85 998.0,90 0.0,90" fill="url(#green_white_radial)" stroke="black" stroke-width="1" style="fill-opacity:0.4;" /></svg>